<?xml version="1.0" standalone="no"?>
<!DOCTYPE svg PUBLIC "-//W3C//DTD SVG 20010904//EN"
 "http://www.w3.org/TR/2001/REC-SVG-20010904/DTD/svg10.dtd">
<svg version="1.0" xmlns="http://www.w3.org/2000/svg"
 width="3000.000000pt" height="2926.000000pt" viewBox="0 0 3000.000000 2926.000000"
 preserveAspectRatio="xMidYMid meet">

<g transform="translate(0.000000,2926.000000) scale(0.100000,-0.100000)"
fill="#000000" stroke="none">
<path d="M4970 29244 c-19 -2 -91 -9 -160 -14 -580 -50 -1200 -218 -1750 -475
-1515 -708 -2618 -2105 -2950 -3738 -34 -169 -73 -434 -92 -627 -19 -200 -19
-19320 0 -19520 53 -542 165 -1024 347 -1490 537 -1373 1632 -2470 2999 -3005
469 -183 920 -292 1446 -347 185 -19 20195 -19 20380 0 526 55 977 164 1446
347 1661 650 2898 2121 3254 3868 34 169 73 434 92 627 19 200 19 19320 0
19520 -78 802 -293 1501 -665 2160 -764 1353 -2078 2304 -3597 2604 -136 27
-274 48 -475 74 -120 15 -911 16 -10185 17 -5530 1 -10071 0 -10090 -1z m6530
-7453 c802 -70 1269 -163 1835 -368 428 -155 689 -285 1040 -519 548 -364 969
-816 1280 -1373 365 -654 566 -1518 540 -2321 -31 -964 -229 -1694 -636 -2348
-150 -243 -420 -569 -641 -775 -862 -805 -1919 -1200 -3528 -1319 -202 -15
-1188 -17 -1642 -4 l-288 9 0 -2040 0 -2040 -22 -33 c-13 -18 -36 -43 -51 -54
l-28 -21 -1258 0 c-1184 0 -1258 1 -1284 18 -15 9 -35 29 -44 44 -17 26 -18
335 -21 6501 -1 4516 1 6486 8 6514 20 74 23 74 428 81 196 4 596 13 887 21
292 9 771 20 1065 26 294 6 551 12 570 14 87 9 1676 -3 1790 -13z m10560
-3091 c749 -41 1317 -129 1757 -271 246 -80 361 -127 399 -165 66 -67 64 -20
64 -1217 0 -1066 0 -1080 -20 -1112 -26 -42 -37 -46 -137 -52 l-82 -6 -178 86
c-364 174 -683 279 -1129 371 -299 61 -560 101 -834 126 -191 18 -605 28 -745
19 -253 -17 -539 -80 -675 -147 -108 -53 -208 -154 -256 -257 -137 -296 -51
-549 272 -797 87 -67 176 -119 362 -212 334 -167 661 -311 912 -400 535 -189
1092 -454 1600 -759 421 -252 680 -477 929 -807 174 -231 272 -417 361 -690
90 -272 127 -493 137 -805 22 -739 -188 -1406 -611 -1937 -285 -358 -642 -643
-1061 -848 -559 -273 -1127 -416 -1920 -482 -195 -16 -918 -16 -1140 0 -443
32 -756 75 -1205 163 -394 77 -834 217 -1142 363 -81 39 -139 93 -164 152 -20
49 -21 2288 -1 2337 35 83 69 80 252 -23 331 -186 737 -357 1087 -459 164 -48
536 -139 698 -171 571 -113 1219 -141 1685 -74 295 43 538 137 655 254 103
103 159 230 167 381 5 81 2 109 -16 167 -58 192 -261 386 -581 555 -191 101
-686 312 -1025 437 -463 171 -874 368 -1305 628 -352 212 -530 344 -739 547
-497 484 -759 989 -846 1631 -22 158 -22 530 0 713 97 838 525 1551 1231 2056
251 180 652 378 979 485 339 110 778 189 1220 219 177 12 831 13 1045 1z"/>
<path d="M9900 19350 c-217 -3 -403 -10 -412 -14 -17 -8 -18 -118 -18 -2106
l0 -2098 28 -6 c162 -31 1313 -33 1592 -1 489 54 1001 183 1295 325 437 211
788 560 940 936 166 410 203 1017 90 1460 -146 569 -500 996 -1015 1225 -288
128 -621 216 -1000 265 -147 19 -857 26 -1500 14z"/>
</g>
</svg>
